Coordinates
version=1
nRows=19
nColumns=36
inDegrees=yes

Units are S.I. units (second, meters, Newtons, ...)
If the header above contains a line with 'inDegrees', this indicates whether rotational values are in degrees (yes) or radians (no).

endheader
time	pelvis_tilt	pelvis_list	pelvis_rotation	pelvis_tx	pelvis_ty	pelvis_tz	hip_flexion_r	hip_adduction_r	hip_rotation_r	knee_angle_r	knee_angle_r_beta	ankle_angle_r	subtalar_angle_r	mtp_angle_r	hip_flexion_l	hip_adduction_l	hip_rotation_l	knee_angle_l	knee_angle_l_beta	ankle_angle_l	subtalar_angle_l	mtp_angle_l	lumbar_extension	lumbar_bending	lumbar_rotation	arm_flex_r	arm_add_r	arm_rot_r	elbow_flex_r	pro_sup_r	arm_flex_l	arm_add_l	arm_rot_l	elbow_flex_l	pro_sup_l
      1.26250000	    -12.90091119	      0.92231407	     -0.52324349	     -0.90346848	      1.24136057	     -0.10462446	     11.20393060	     -0.25761850	      2.42308550	      0.38272263	      0.00667977	     -1.47115580	    -15.61386289	     -7.49999987	     11.36507048	      2.26449811	      5.91371006	      0.42314547	      0.00738528	      3.76639411	     -5.07534648	     -7.49999987	    -10.35661121	      1.59599784	     -0.05531823	     12.97603670	     -8.75730840	     23.52891855	     31.53241098	     72.68280028	     11.91521287	     -7.86506450	     22.50471775	     31.74482686	     80.21619635
      1.26666670	    -13.02078439	      0.92740918	     -0.54163028	     -0.90217243	      1.24466035	     -0.10538197	     11.34120539	     -0.25402573	      2.34784408	      0.38589912	      0.00673521	     -1.47412905	    -15.50770353	     -7.49999987	     11.48801777	      2.26949952	      5.83762022	      0.43087682	      0.00752022	      3.78723662	     -5.08418974	     -7.49999987	    -10.27146700	      1.59476731	     -0.02114149	     12.88850732	     -8.62856084	     22.47386667	     31.46688370	     77.25876996	     11.76311408	     -7.68699647	     20.87340933	     31.70071571	     87.06415702
      1.27083330	    -13.03952713	      0.92708081	     -0.57779935	     -0.90270071	      1.24460091	     -0.10419497	     11.37884314	     -0.22455078	      2.28535990	      0.38157143	      0.00665968	     -1.48191408	    -15.47465836	     -7.49999987	     11.48939548	      2.25825580	      5.68022114	      0.43620473	      0.00761321	      3.86053447	     -4.98967262	     -7.49999987	    -10.27205712	      1.58602532	      0.02263819	     12.92099831	     -8.54047188	     22.49839584	     31.42896649	     75.76373026	     11.75165142	     -7.64883296	     20.87890802	     31.65085718	     84.83875915
      1.27500000	    -12.89533672	      0.91573031	     -0.58508297	     -0.90230727	      1.24594255	     -0.10409117	     11.22611197	     -0.18194089	      2.25486762	      0.37561892	      0.00655579	     -1.38074700	    -15.29623732	     -7.49999987	     11.31327737	      2.23252636	      5.76206370	      0.42879326	      0.00748385	      3.73280293	     -5.31103834	     -7.49999987	    -10.49646294	      1.57092347	      0.06624479	     12.99383147	     -8.59538290	     23.06368388	     31.52398476	     75.41303906	     11.83282463	     -7.78596599	     21.56014943	     31.75529751	     84.17790041
      1.27916670	    -12.93074123	      0.92256066	     -0.64035515	     -0.90285426	      1.24222073	     -0.10483047	     11.29198024	     -0.16821840	      2.36397978	      0.37177745	      0.00648874	     -1.34024210	    -15.33546578	     -7.49999987	     11.35487915	      2.23178126	      5.63904261	      0.42849308	      0.00747862	      3.82702834	     -5.27724062	     -7.49999987	    -10.45018821	      1.54163316	      0.12722944	     13.04125730	     -8.57813516	     23.21308467	     31.41816061	     75.89448751	     11.88459781	     -7.80537516	     21.72240818	     31.65840011	     84.90992743
      1.28333330	    -12.83765164	      0.89932702	     -0.65658111	     -0.90222461	      1.24261195	     -0.10446583	     11.19539247	     -0.13912662	      2.02574778	      0.37543337	      0.00655255	     -0.88791896	    -14.56388184	     -7.49999987	     11.22922097	      2.19429039	      5.58572205	      0.41978714	      0.00732667	      3.99215951	     -4.98645482	     -7.49999987	    -10.57509791	      1.54746616	      0.08085624	     13.06544612	     -8.45936322	     23.02156039	     31.39979609	     75.08616305	     11.85624474	     -7.77277481	     21.53935337	     31.67862888	     83.58908637
      1.28750000	    -12.84125462	      0.88601350	     -0.68496175	     -0.90282762	      1.24394808	     -0.10493478	     11.19699410	     -0.13719245	      2.09296048	      0.37770810	      0.00659225	     -0.84340409	    -14.47313702	     -7.49999987	     11.23363751	      2.18835295	      5.51982487	      0.41078615	      0.00716957	      3.98961785	     -4.92532792	     -7.49999987	    -10.60052926	      1.57565980	      0.08394185	     13.07141295	     -8.39020892	     22.98083348	     31.39772111	     74.30130349	     11.83588330	     -7.72060334	     21.51127675	     31.68833730	     82.44164380
      1.29166670	    -12.73703748	      0.86469380	     -0.70455105	     -0.90332043	      1.24213579	     -0.10443565	     11.09103771	     -0.11400495	      2.31693662	      0.36769243	      0.00641744	     -0.95563463	    -14.94600703	     -7.49999987	     11.13202403	      2.17033624	      5.65606366	      0.41063247	      0.00716689	      4.11918606	     -5.03005415	     -7.49999987	    -10.79446597	      1.57122833	      0.07575473	     13.24378330	     -8.53938167	     23.77722016	     31.55714653	     73.25637859	     11.98763331	     -7.92995327	     22.52121714	     31.82365255	     80.92657881
      1.29583330	    -12.75118556	      0.85524314	     -0.68402001	     -0.90500993	      1.24380443	     -0.10527012	     11.11420762	     -0.12976646	      2.26046960	      0.37469677	      0.00653969	     -1.00256724	    -14.85747333	     -7.49999987	     11.17720895	      2.17486479	      5.60875675	      0.41230975	      0.00719616	      4.17984011	     -4.80481670	     -7.49999987	    -10.86266566	      1.58940641	      0.06546710	     13.35004525	     -8.50026141	     23.73485366	     31.47038274	     73.21704323	     12.10794075	     -7.87185338	     22.47196875	     31.74189637	     80.87768462
      1.30000000	    -12.78254373	      0.84870191	     -0.73449709	     -0.90463288	      1.24534734	     -0.10483769	     11.17979453	     -0.12252035	      2.41631866	      0.37689154	      0.00657800	     -1.22305623	    -15.08338369	     -7.49999987	     11.24989451	      2.16500697	      5.62900403	      0.41785592	      0.00729296	      4.09774568	     -4.91181722	     -7.49999987	    -10.90446280	      1.58109779	      0.13805140	     13.48034253	     -8.50753159	     23.88986171	     31.37158047	     73.74689825	     12.24805693	     -7.84553533	     22.57092389	     31.63502972	     81.68083255
      1.30416670	    -12.87899726	      0.84458696	     -0.76307849	     -0.90552402	      1.24177561	     -0.10484163	     11.33195222	     -0.11352021	      2.33937605	      0.38930391	      0.00679463	     -1.17243304	    -15.06685508	     -7.49999987	     11.37864878	      2.16382831	      5.57566479	      0.43063644	      0.00751602	      4.13852440	     -4.91673621	     -7.49999987	    -10.94130659	      1.58982466	      0.14927031	     13.50375047	     -8.51553772	     23.87614772	     31.53260065	     73.68763401	     12.27683513	     -7.88307302	     22.54910005	     31.79037377	     81.59213420
      1.30833330	    -12.78474279	      0.81759349	     -0.80806736	     -0.90276979	      1.24383523	     -0.10359457	     11.21790917	     -0.05408904	      2.17824052	      0.39506540	      0.00689519	     -1.12739967	    -14.76443018	     -7.49999987	     11.25001470	      2.09651631	      5.54172822	      0.42369262	      0.00739483	      4.24752921	     -4.54677527	     -7.49999987	    -11.05493946	      1.55765933	      0.13749687	     13.49154741	     -8.30280612	     22.88925610	     31.41833342	     77.84708953	     12.18667920	     -7.72274551	     20.82544280	     31.77227930	     87.76876498
      1.31250000	    -12.68125535	      0.79480088	     -0.83819371	     -0.90275286	      1.24404927	     -0.10437456	     11.10849022	     -0.01782393	      2.13518820	      0.39430492	      0.00688192	     -1.15349446	    -14.76885024	     -7.49999987	     11.11399395	      2.05794547	      5.63175471	      0.42899266	      0.00748733	      4.20893343	     -4.70596224	     -7.49999987	    -11.24051973	      1.58335161	      0.15102632	     13.55509611	     -8.30942942	     23.12713665	     31.47719044	     76.18462191	     12.20495159	     -7.74170593	     21.15494422	     31.84707986	     85.14317451
      1.31666670	    -12.54276482	      0.79019027	     -0.86477180	     -0.90178703	      1.24624679	     -0.10428913	     10.93461684	      0.01188245	      1.94947486	      0.39567338	      0.00690580	     -1.00130652	    -14.23246154	     -7.49999987	     10.91007193	      2.01607404	      5.62511224	      0.42650195	      0.00744386	      4.19851300	     -4.47568821	     -7.49999987	    -11.40264103	      1.56260776	      0.12827392	     13.56848149	     -8.22351772	     23.13253757	     31.41422605	     75.59597867	     12.18591029	     -7.72818287	     21.17407070	     31.76485748	     84.18519853
      1.32083330	    -12.47453309	      0.77725412	     -0.90080653	     -0.90234087	      1.24649783	     -0.10346914	     10.84837108	      0.05993904	      2.06415486	      0.39397374	      0.00687614	     -1.14557159	    -14.44779117	     -7.49999987	     10.79688567	      1.97404436	      5.52505327	      0.42805341	      0.00747094	      4.27535904	     -4.45894880	     -7.49999987	    -11.45893125	      1.54119443	      0.14758486	     13.60401528	     -8.15115493	     23.20572065	     31.30432625	     75.26619344	     12.22048851	     -7.71843775	     21.24446642	     31.63258597	     83.70654919
      1.32500000	    -12.48705726	      0.76841305	     -0.91319616	     -0.90263263	      1.24256315	     -0.10467150	     10.84561961	      0.07662423	      2.17380534	      0.39938935	      0.00697066	     -1.19902224	    -14.71100429	     -7.49999987	     10.79645938	      1.96092909	      5.59140584	      0.42968441	      0.00749941	      4.21840311	     -4.74878527	     -7.49999987	    -11.45740589	      1.52859174	      0.13484375	     13.57688002	     -8.14023437	     22.97186440	     31.34464360	     78.31924755	     12.19735036	     -7.71238726	     20.74979659	     31.65955019	     88.09388835
      1.32916670	    -12.38730189	      0.76304616	     -0.89540606	     -0.90088517	      1.24285844	     -0.10472104	     10.70913251	      0.07812835	      2.23802214	      0.40044273	      0.00698904	     -1.24449048	    -14.84028381	     -7.49999987	     10.65335534	      1.95152401	      5.69808145	      0.43046056	      0.00751295	      4.15590509	     -4.95331398	     -7.49999987	    -11.58177129	      1.51850987	      0.07935659	     13.59172422	     -8.13977730	     23.29545788	     31.37435570	     76.77019019	     12.22033253	     -7.74632423	     21.22618806	     31.66732893	     85.59088091
      1.33333330	    -12.32332120	      0.75817920	     -0.94243315	     -0.90177335	      1.24490425	     -0.10475587	     10.62329622	      0.07808807	      2.07677036	      0.40917462	      0.00714144	     -0.98918818	    -14.41043145	     -7.49999987	     10.55957117	      1.94722547	      5.53777771	      0.42336533	      0.00738912	      4.25783043	     -4.73292206	     -7.49999987	    -11.66310687	      1.51385757	      0.08558778	     13.60728298	     -8.08456822	     23.21101201	     31.39171275	     75.69420019	     12.19613417	     -7.68614655	     21.12368108	     31.62483750	     83.99268101
      1.33750000	    -12.23355954	      0.72920245	     -0.94521315	     -0.90168016	      1.24783605	     -0.10298673	     10.51590208	      0.12845467	      1.99751866	      0.40704309	      0.00710424	     -1.02749199	    -14.40055155	     -7.49999987	     10.45593683	      1.89870936	      5.56535370	      0.42247739	      0.00737362	      4.27973053	     -4.65779524	     -7.49999987	    -11.78888207	      1.48961929	      0.05703502	     13.69537861	     -7.99063688	     23.32457066	     31.27107730	     75.21851011	     12.25371947	     -7.69816283	     21.22577893	     31.48140635	     83.24026935
